<svg xmlns="http://www.w3.org/2000/svg" xmlns:xlink="http://www.w3.org/1999/xlink" width="147.635" height="108.783" viewBox="0 0 147.635 108.783">
  <defs>
    <filter id="Elipse_5" x="24.645" y="16.556" width="41.065" height="41.065" filterUnits="userSpaceOnUse">
      <feOffset dy="3" input="SourceAlpha"/>
      <feGaussianBlur stdDeviation="3" result="blur"/>
      <feFlood flood-opacity="0.439"/>
      <feComposite operator="in" in2="blur"/>
      <feComposite in="SourceGraphic"/>
    </filter>
    <filter id="Rectángulo_9" x="52.264" y="20.365" width="44.609" height="34.478" filterUnits="userSpaceOnUse">
      <feOffset dy="3" input="SourceAlpha"/>
      <feGaussianBlur stdDeviation="3" result="blur-2"/>
      <feFlood flood-opacity="0.639"/>
      <feComposite operator="in" in2="blur-2"/>
      <feComposite in="SourceGraphic"/>
    </filter>
    <filter id="Trazado_46" x="82.177" y="16.785" width="38.104" height="40.896" filterUnits="userSpaceOnUse">
      <feOffset dy="3" input="SourceAlpha"/>
      <feGaussianBlur stdDeviation="3" result="blur-3"/>
      <feFlood flood-opacity="0.639"/>
      <feComposite operator="in" in2="blur-3"/>
      <feComposite in="SourceGraphic"/>
    </filter>
    <filter id="Elipse_6" x="5.934" y="0" width="23.149" height="23.149" filterUnits="userSpaceOnUse">
      <feOffset dy="3" input="SourceAlpha"/>
      <feGaussianBlur stdDeviation="3" result="blur-4"/>
      <feFlood flood-opacity="0.69"/>
      <feComposite operator="in" in2="blur-4"/>
      <feComposite in="SourceGraphic"/>
    </filter>
    <filter id="Elipse_7" x="14.12" y="0" width="23.149" height="23.149" filterUnits="userSpaceOnUse">
      <feOffset dy="3" input="SourceAlpha"/>
      <feGaussianBlur stdDeviation="3" result="blur-5"/>
      <feFlood flood-opacity="0.69"/>
      <feComposite operator="in" in2="blur-5"/>
      <feComposite in="SourceGraphic"/>
    </filter>
    <filter id="Elipse_8" x="22.768" y="0" width="23.149" height="23.149" filterUnits="userSpaceOnUse">
      <feOffset dy="3" input="SourceAlpha"/>
      <feGaussianBlur stdDeviation="3" result="blur-6"/>
      <feFlood flood-opacity="0.69"/>
      <feComposite operator="in" in2="blur-6"/>
      <feComposite in="SourceGraphic"/>
    </filter>
    <filter id="Trazado_48" x="0" y="80.623" width="147.635" height="22.973" filterUnits="userSpaceOnUse">
      <feOffset dy="3" input="SourceAlpha"/>
      <feGaussianBlur stdDeviation="3" result="blur-7"/>
      <feFlood flood-opacity="0.671"/>
      <feComposite operator="in" in2="blur-7"/>
      <feComposite in="SourceGraphic"/>
    </filter>
    <filter id="Rectángulo_11" x="50.864" y="85.596" width="45.907" height="23.188" filterUnits="userSpaceOnUse">
      <feOffset dy="3" input="SourceAlpha"/>
      <feGaussianBlur stdDeviation="3" result="blur-8"/>
      <feFlood flood-opacity="0.671"/>
      <feComposite operator="in" in2="blur-8"/>
      <feComposite in="SourceGraphic"/>
    </filter>
    <filter id="Trazado_49" x="26.075" y="47.292" width="38.643" height="40.052" filterUnits="userSpaceOnUse">
      <feOffset dy="3" input="SourceAlpha"/>
      <feGaussianBlur stdDeviation="3" result="blur-9"/>
      <feFlood flood-opacity="0.639"/>
      <feComposite operator="in" in2="blur-9"/>
      <feComposite in="SourceGraphic"/>
    </filter>
    <filter id="Trazado_51" x="54.558" y="47.292" width="38.648" height="40.069" filterUnits="userSpaceOnUse">
      <feOffset dy="3" input="SourceAlpha"/>
      <feGaussianBlur stdDeviation="3" result="blur-10"/>
      <feFlood flood-opacity="0.639"/>
      <feComposite operator="in" in2="blur-10"/>
      <feComposite in="SourceGraphic"/>
    </filter>
    <filter id="Trazado_60" x="84.393" y="47.292" width="38.644" height="40.052" filterUnits="userSpaceOnUse">
      <feOffset dy="3" input="SourceAlpha"/>
      <feGaussianBlur stdDeviation="3" result="blur-11"/>
      <feFlood flood-opacity="0.639"/>
      <feComposite operator="in" in2="blur-11"/>
      <feComposite in="SourceGraphic"/>
    </filter>
  </defs>
  <g id="Grupo_15" data-name="Grupo 15" transform="translate(346.71 -105.641)">
    <path id="Trazado_40" data-name="Trazado 40" d="M96.341,248.392s.648,1.106,2.842.708c0,0,3.249-.639,4.3-3.093,0,0,.916-1.866-1.607-2.28a11.5,11.5,0,0,0-8.64,4.095s-.956,1.44-.1,2.442a4.527,4.527,0,0,0,1.451,1.486,10.309,10.309,0,0,1,1.624,1.406,6.209,6.209,0,0,1,3.065,0s2.235.991,1.589,2.753a1.387,1.387,0,0,1-1.152.829s-.265.1.5-.576a1.024,1.024,0,0,0,0-1.463s-.426-.887-2.154-.956c0,0-1.083-.092-1.359.127a3.955,3.955,0,0,1,.023,2.419s-.835,2.4-2.684,2.4c0,0-1.849.4-2.108-.812a2.446,2.446,0,0,1,1-2.713,9.571,9.571,0,0,1,2.454-1.555,24.238,24.238,0,0,1-3.248-2.54,2.632,2.632,0,0,1-.761-3.093s1.037-3.3,7.292-5.27c0,0,5.2-1.261,6.031,1.5a3.858,3.858,0,0,1-1.745,4.337,9.118,9.118,0,0,1-3.11,1.331,4.326,4.326,0,0,1-2.955-.311S95.624,248.409,96.341,248.392Z" transform="translate(-399.512 -110.855)" fill="#46637d"/>
    <g transform="matrix(1, 0, 0, 1, -346.71, 105.64)" filter="url(#Elipse_5)">
      <ellipse id="Elipse_5-2" data-name="Elipse 5" cx="11.033" cy="11.033" rx="11.033" ry="11.033" transform="translate(34.14 23.06)" fill="none" stroke="#46637d" stroke-miterlimit="10" stroke-width="1"/>
    </g>
    <path id="Trazado_41" data-name="Trazado 41" d="M97.227,261.968s-3.018,1.521-2.6,3.249c0,0,.83.611,1.889-.553A2.636,2.636,0,0,0,97.227,261.968Z" transform="translate(-400.896 -118.667)" fill="#fff"/>
    <g transform="matrix(1, 0, 0, 1, -346.71, 105.64)" filter="url(#Rectángulo_9)">
      <rect id="Rectángulo_9-2" data-name="Rectángulo 9" width="25.609" height="15.478" transform="translate(61.76 26.87)" fill="none" stroke="#46637d" stroke-miterlimit="10" stroke-width="1"/>
    </g>
    <g id="Grupo_12" data-name="Grupo 12" transform="translate(-282.502 135.974)">
      <path id="Trazado_42" data-name="Trazado 42" d="M138.691,255.409a4.73,4.73,0,0,1-2.871,1.314,1.508,1.508,0,0,1-1.152-.453,1.751,1.751,0,0,1-.428-1.252,5.178,5.178,0,0,1,1.558-3.588,4.467,4.467,0,0,1,3.229-1.666,1.457,1.457,0,0,1,.788.187.548.548,0,0,1,.3.473,1.1,1.1,0,0,1-.179.552q-.179.3-.348.3c-.075,0-.136-.062-.186-.186a1,1,0,0,0-.264-.409.693.693,0,0,0-.436-.113,2.817,2.817,0,0,0-1.687.755,5.887,5.887,0,0,0-1.479,1.729,3.885,3.885,0,0,0-.542,1.888q0,1.064.928,1.064a2.692,2.692,0,0,0,.986-.225,5.8,5.8,0,0,0,1.2-.682,2.144,2.144,0,0,0,.773-.8,4.089,4.089,0,0,0,.213-.941q.043-.322.449-.322.436,0,.436.282a1.516,1.516,0,0,1-.13.455,7.074,7.074,0,0,0-.315.959q-.1.432-.188,1a6.3,6.3,0,0,0-.084.809,3.786,3.786,0,0,0,.077.632.963.963,0,0,1,.013.146.5.5,0,0,1-.115.309.343.343,0,0,1-.283.15.561.561,0,0,1-.364-.152.441.441,0,0,1-.179-.339q0-.146.2-1.3C138.646,255.735,138.674,255.545,138.691,255.409Z" transform="translate(-134.241 -249.764)" fill="#46637d"/>
      <path id="Trazado_43" data-name="Trazado 43" d="M153.159,255.015c0,.006-.011.029-.024.068s-.027.083-.043.13-.031.09-.045.13a.542.542,0,0,1-.026.064,2.166,2.166,0,0,1-.158.361q-.105.2-.241.407c-.091.139-.189.28-.3.42s-.213.274-.319.4-.21.242-.31.349-.192.2-.272.271c-.1.091-.215.183-.334.277a3.022,3.022,0,0,1-.376.252,2.54,2.54,0,0,1-.4.184,1.179,1.179,0,0,1-.4.073.56.56,0,0,1-.527-.393,3.3,3.3,0,0,1-.173-1.243,5.953,5.953,0,0,1-.565.7,6.014,6.014,0,0,1-.624.578,3.55,3.55,0,0,1-.6.393,1.15,1.15,0,0,1-.5.146.886.886,0,0,1-.745-.339,1.52,1.52,0,0,1-.261-.948,2.924,2.924,0,0,1,.024-.339q.023-.2.069-.441t.107-.5q.063-.258.14-.518c.006-.015.016-.049.03-.1s.032-.116.054-.189.044-.15.067-.232.045-.159.067-.23.041-.133.058-.186.029-.087.035-.1a.948.948,0,0,1,.127-.207.217.217,0,0,1,.175-.079.421.421,0,0,1,.265.075.317.317,0,0,1,.1.266,1.085,1.085,0,0,1-.035.218c-.023.1-.051.205-.084.316s-.066.216-.1.316-.058.171-.076.214a5.55,5.55,0,0,0-.272,1.546q0,.686.306.686a1.01,1.01,0,0,0,.4-.086,2.048,2.048,0,0,0,.4-.229,3.226,3.226,0,0,0,.379-.327q.184-.185.345-.382a4.467,4.467,0,0,0,.289-.393q.127-.2.214-.359c.04-.076.079-.153.116-.229l.119-.246q.062-.13.132-.28c.046-.1.1-.211.156-.331s.1-.216.142-.3.094-.129.142-.129a.613.613,0,0,1,.136.016.531.531,0,0,1,.133.05.333.333,0,0,1,.1.086.2.2,0,0,1,.041.13l-.022.073c-.014.049-.032.109-.052.182s-.043.151-.067.234l-.069.234c-.022.073-.041.133-.056.181a.268.268,0,0,1-.028.073c-.017.091-.034.194-.049.309s-.03.229-.041.343-.02.22-.028.318-.011.18-.011.243a1.286,1.286,0,0,0,.071.477q.071.173.158.173a.876.876,0,0,0,.291-.052,1.579,1.579,0,0,0,.3-.145,3.344,3.344,0,0,0,.306-.214c.1-.08.206-.166.307-.257a5.186,5.186,0,0,0,.4-.414q.216-.245.429-.522t.41-.57a6.47,6.47,0,0,0,.339-.561.342.342,0,0,1,.144-.159.336.336,0,0,1,.123-.036c.02,0,.042.03.065.091Z" transform="translate(-138.906 -251.525)" fill="#46637d"/>
      <path id="Trazado_44" data-name="Trazado 44" d="M160.519,254.715a9.944,9.944,0,0,1-.7.914,6.181,6.181,0,0,1-.7.7,3.338,3.338,0,0,1-.677.447,1.427,1.427,0,0,1-.615.159.821.821,0,0,1-.727-.418,2.32,2.32,0,0,1-.265-1.232q0-.454.052-1t.134-1.1q.082-.559.183-1.1t.205-.986c.052-.227.1-.425.157-.591a2.211,2.211,0,0,1,.171-.409.748.748,0,0,1,.2-.237.4.4,0,0,1,.24-.077.314.314,0,0,1,.158.041.449.449,0,0,1,.123.105.473.473,0,0,1,.08.148.535.535,0,0,1,.028.17.818.818,0,0,1-.041.221c-.028.092-.062.195-.1.307s-.086.23-.136.354l-.142.357c-.046.113-.087.219-.123.316a2.139,2.139,0,0,0-.076.237q-.065.3-.13.689t-.118.814q-.054.42-.089.836t-.034.761a2.04,2.04,0,0,0,.052.5,1.013,1.013,0,0,0,.132.313.491.491,0,0,0,.173.164.383.383,0,0,0,.175.047.8.8,0,0,0,.333-.084,2.187,2.187,0,0,0,.382-.234,4.776,4.776,0,0,0,.414-.352q.213-.2.429-.439t.428-.5q.212-.261.406-.529c.049-.07.088-.123.116-.159a.114.114,0,0,1,.082-.055.077.077,0,0,1,.071.056.393.393,0,0,1,.024.148.685.685,0,0,1-.022.162,1.661,1.661,0,0,1-.056.182,1.712,1.712,0,0,1-.082.184C160.587,254.6,160.554,254.66,160.519,254.715Z" transform="translate(-143.267 -249.77)" fill="#46637d"/>
      <path id="Trazado_45" data-name="Trazado 45" d="M166.78,254.339a3.714,3.714,0,0,1-.108.914,3.459,3.459,0,0,1-.311.8,3.84,3.84,0,0,1-.5.714,7.477,7.477,0,0,1-.673.67,3.135,3.135,0,0,1-.322.241,2.9,2.9,0,0,1-.373.209,2.712,2.712,0,0,1-.39.148,1.33,1.33,0,0,1-.369.056.581.581,0,0,1-.2-.029.411.411,0,0,1-.136-.084.743.743,0,0,1-.11-.13c-.035-.05-.075-.105-.121-.166-.066.206-.119.379-.16.518s-.073.264-.1.373-.046.213-.061.311-.028.21-.043.334-.032.272-.053.443-.052.383-.089.634a.683.683,0,0,1-.047.168,1.179,1.179,0,0,1-.092.182.768.768,0,0,1-.117.145.18.18,0,0,1-.118.059.371.371,0,0,1-.147-.038.9.9,0,0,1-.164-.1,1.011,1.011,0,0,1-.134-.116.164.164,0,0,1-.056-.1,1.407,1.407,0,0,1,.037-.318c.024-.106.045-.207.062-.3q.134-.718.279-1.345t.261-1.246q.116-.618.192-1.275a12.716,12.716,0,0,0,.075-1.434c0-.012,0-.04,0-.084s0-.091,0-.141,0-.1,0-.139,0-.071,0-.086a1.229,1.229,0,0,1,.037-.3,1,1,0,0,1,.106-.261.678.678,0,0,1,.162-.189.324.324,0,0,1,.2-.073.133.133,0,0,1,.1.052.522.522,0,0,1,.086.141,1.018,1.018,0,0,1,.063.211,1.4,1.4,0,0,1,.023.264c0,.157-.008.338-.026.54s-.038.409-.062.616-.05.405-.076.593-.046.345-.061.473a5.667,5.667,0,0,1,.391-.763,7.117,7.117,0,0,1,.464-.673,5.6,5.6,0,0,1,.494-.557,5.15,5.15,0,0,1,.486-.425,2.311,2.311,0,0,1,.436-.27.772.772,0,0,1,.71-.014,1,1,0,0,1,.3.209.963.963,0,0,1,.2.3A.854.854,0,0,1,166.78,254.339Zm-.708.423a1.008,1.008,0,0,0-.043-.322.547.547,0,0,0-.1-.189.308.308,0,0,0-.127-.089.364.364,0,0,0-.11-.023.713.713,0,0,0-.4.161,3.191,3.191,0,0,0-.466.423,6.5,6.5,0,0,0-.483.593q-.242.331-.449.668c-.034.057-.08.134-.136.232s-.11.2-.162.3-.1.2-.134.3a.644.644,0,0,0-.056.214.238.238,0,0,0,.034.1.5.5,0,0,0,.1.125.64.64,0,0,0,.169.107.572.572,0,0,0,.235.045.922.922,0,0,0,.41-.116,2.392,2.392,0,0,0,.464-.313,4.153,4.153,0,0,0,.863-1.018,3.286,3.286,0,0,0,.283-.6A1.827,1.827,0,0,0,166.073,254.761Z" transform="translate(-145.246 -251.18)" fill="#46637d"/>
    </g>
    <g transform="matrix(1, 0, 0, 1, -346.71, 105.64)" filter="url(#Trazado_46)">
      <path id="Trazado_46-2" data-name="Trazado 46" d="M186.2,244.746s.062,5.711,0,9.342-2.576,2.39-2.576,2.39l-3.631-2.359v-10.18l9.586-5.773,9.518,5.742v10.211l-9.552,5.773-2.941-1.831" transform="translate(-88.31 -214.8)" fill="none" stroke="#46637d" stroke-miterlimit="10" stroke-width="1"/>
    </g>
    <g id="Grupo_13" data-name="Grupo 13" transform="translate(-246.377 135.319)">
      <path id="Trazado_47" data-name="Trazado 47" d="M194.408,255.223l1.175-.1a2.6,2.6,0,0,0,.388,1.159,2.121,2.121,0,0,0,.947.732,3.586,3.586,0,0,0,1.445.279,3.466,3.466,0,0,0,1.258-.212,1.745,1.745,0,0,0,.812-.581,1.347,1.347,0,0,0,.267-.806,1.223,1.223,0,0,0-.257-.773,1.9,1.9,0,0,0-.848-.555,16.416,16.416,0,0,0-1.676-.459,8.553,8.553,0,0,1-1.817-.588,2.552,2.552,0,0,1-1-.876,2.147,2.147,0,0,1-.331-1.173,2.387,2.387,0,0,1,.4-1.332,2.5,2.5,0,0,1,1.182-.941,4.484,4.484,0,0,1,1.727-.321,4.713,4.713,0,0,1,1.846.337,2.665,2.665,0,0,1,1.23.992,2.853,2.853,0,0,1,.462,1.484l-1.195.089a1.922,1.922,0,0,0-.651-1.348,2.533,2.533,0,0,0-1.64-.456,2.631,2.631,0,0,0-1.647.414,1.242,1.242,0,0,0-.517,1,1.071,1.071,0,0,0,.366.835,4.96,4.96,0,0,0,1.878.671,12.437,12.437,0,0,1,2.083.6,2.857,2.857,0,0,1,1.214.96,2.339,2.339,0,0,1,.392,1.339,2.56,2.56,0,0,1-.431,1.416,2.834,2.834,0,0,1-1.236,1.034,4.307,4.307,0,0,1-1.814.369,5.418,5.418,0,0,1-2.141-.372,3,3,0,0,1-1.355-1.121A3.179,3.179,0,0,1,194.408,255.223Z" transform="translate(-194.408 -248.674)" fill="#46637d"/>
    </g>
    <path id="Rectángulo_10" data-name="Rectángulo 10" d="M4.43,0h120.2a4.43,4.43,0,0,1,4.43,4.43v81.6a0,0,0,0,1,0,0H0a0,0,0,0,1,0,0V4.43A4.43,4.43,0,0,1,4.43,0Z" transform="translate(-337.42 106.238)" fill="none" stroke="#46637d" stroke-miterlimit="10" stroke-width="1"/>
    <line id="Línea_3" data-name="Línea 3" x2="129.065" transform="translate(-337.42 119.747)" fill="none" stroke="#46637d" stroke-miterlimit="10" stroke-width="1"/>
    <g transform="matrix(1, 0, 0, 1, -346.71, 105.64)" filter="url(#Elipse_6)">
      <ellipse id="Elipse_6-2" data-name="Elipse 6" cx="2.575" cy="2.575" rx="2.575" ry="2.575" transform="translate(14.93 6)" fill="#46637d"/>
    </g>
    <g transform="matrix(1, 0, 0, 1, -346.71, 105.64)" filter="url(#Elipse_7)">
      <ellipse id="Elipse_7-2" data-name="Elipse 7" cx="2.575" cy="2.575" rx="2.575" ry="2.575" transform="translate(23.12 6)" fill="#46637d"/>
    </g>
    <g transform="matrix(1, 0, 0, 1, -346.71, 105.64)" filter="url(#Elipse_8)">
      <ellipse id="Elipse_8-2" data-name="Elipse 8" cx="2.575" cy="2.575" rx="2.575" ry="2.575" transform="translate(31.77 6)" fill="#46637d"/>
    </g>
    <g transform="matrix(1, 0, 0, 1, -346.71, 105.64)" filter="url(#Trazado_48)">
      <path id="Trazado_48-2" data-name="Trazado 48" d="M42.29,343.518v4.409l129.635.563v-4.973Z" transform="translate(-33.29 -256.89)" fill="#46637d"/>
    </g>
    <g transform="matrix(1, 0, 0, 1, -346.71, 105.64)" filter="url(#Rectángulo_11)">
      <rect id="Rectángulo_11-2" data-name="Rectángulo 11" width="27.907" height="5.188" transform="translate(59.86 91.6)" fill="#46637d"/>
    </g>
    <g transform="matrix(1, 0, 0, 1, -346.71, 105.64)" filter="url(#Trazado_49)">
      <path id="Trazado_49-2" data-name="Trazado 49" d="M86.628,288.836h19.55l-1.661,18.838-7.751,2.215H96.2l-7.9-2.215Z" transform="translate(-51.01 -235.04)" fill="none" stroke="#46637d" stroke-miterlimit="10" stroke-width="1"/>
    </g>
    <path id="Trazado_50" data-name="Trazado 50" d="M92.574,295.2l.726,7.074h8.439l-.1,2.9-2.52.84H98.58l-2.626-.84-.146-1.782H93.485l.185,3.736,4.8,1.228h.655l4.783-1.244.6-7.156H95.5l-.172-2.437h9.432l.229-2.32Z" transform="translate(-400.093 -131.946)" fill="#46637d"/>
    <g transform="matrix(1, 0, 0, 1, -346.71, 105.64)" filter="url(#Trazado_51)">
      <path id="Trazado_51-2" data-name="Trazado 51" d="M134.071,288.836h19.55l-1.8,18.959-8,2.093-8.02-2.1Z" transform="translate(-69.96 -235.04)" fill="none" stroke="#46637d" stroke-miterlimit="10" stroke-width="1"/>
    </g>
    <path id="Trazado_52" data-name="Trazado 52" d="M140.017,295.411l.226,2.227h6.192v.126l-5.969,2.269.249,2.293h8.63L149,305.452l-2.6.721h-.239l-2.754-.721-.063-1.831h-2.564l.369,3.609,5.012,1.338h.239l5.049-1.36.551-7.109h-5.511v-.14l5.836-2.3.106-2.246Z" transform="translate(-419.051 -132.03)" fill="#46637d"/>
    <path id="Trazado_53" data-name="Trazado 53" d="M141.575,282.036v1.256h1.816v1.242h-3.167v-3.864h3.167v1.372Z" transform="translate(-419.133 -126.14)" fill="#46637d"/>
    <path id="Trazado_54" data-name="Trazado 54" d="M147.784,280.671v1.338l1.258,1.285h-1.258v1.249h3.072V283.3l-1.137-1.263h1.137v-1.365Z" transform="translate(-422.154 -126.14)" fill="#46637d"/>
    <path id="Trazado_55" data-name="Trazado 55" d="M155.363,280.674v1.338l1.258,1.285h-1.258v1.249h3.072V283.3l-1.137-1.263h1.137v-1.365Z" transform="translate(-425.183 -126.141)" fill="#46637d"/>
    <g id="Grupo_14" data-name="Grupo 14" transform="translate(-308.516 154.517)">
      <path id="Trazado_56" data-name="Trazado 56" d="M94.225,280.648v3.9h-1.2v-1.518h-.915v1.518h-1.2v-3.9h1.2v1.436h.915v-1.436Z" transform="translate(-90.913 -280.648)" fill="#46637d"/>
      <path id="Trazado_57" data-name="Trazado 57" d="M98.936,281.583v2.968H97.8v-2.968h-.809v-.935h2.754v.935Z" transform="translate(-93.342 -280.648)" fill="#46637d"/>
      <path id="Trazado_58" data-name="Trazado 58" d="M106.388,280.648v3.9h-1.113v-2.791l-.722,2.791h-.761l-.751-2.791v2.791h-.9v-3.9h1.566l.566,2.073.541-2.073Z" transform="translate(-95.401 -280.648)" fill="#46637d"/>
      <path id="Trazado_59" data-name="Trazado 59" d="M113.084,283.594v.958h-2.737v-3.9h1.2v2.946Z" transform="translate(-98.679 -280.648)" fill="#46637d"/>
    </g>
    <g transform="matrix(1, 0, 0, 1, -346.71, 105.64)" filter="url(#Trazado_60)">
      <path id="Trazado_60-2" data-name="Trazado 60" d="M183.759,288.836h19.55l-1.683,18.952-7.655,2.1h-.8l-7.706-2.1Z" transform="translate(-89.82 -235.04)" fill="none" stroke="#46637d" stroke-miterlimit="10" stroke-width="1"/>
    </g>
    <path id="Trazado_61" data-name="Trazado 61" d="M190.627,295.411h11.008l.481,4.585h-2.762l-.314-2.293h-5.86l-.356,3.326h9.292l-.8,6.49-5.148,1.049h-1.025l-4.876-1-.565-3.342h2.783l.162,1.55,2.773.65h.487l2.9-.69.3-2.591h-9.407Z" transform="translate(-438.906 -132.03)" fill="#46637d"/>
    <path id="Trazado_62" data-name="Trazado 62" d="M193.31,283.229v1.351h3.471v-3.822h-1.465v2.5Z" transform="translate(-440.346 -126.175)" fill="#46637d"/>
    <path id="Trazado_63" data-name="Trazado 63" d="M200.239,280.674v.885l1.926,1.722v.338h-1.8v.827h3.759v-.827l-1.779-2h1.812v-.946Z" transform="translate(-443.115 -126.141)" fill="#46637d"/>
  </g>
</svg>
