<svg xmlns="http://www.w3.org/2000/svg" xmlns:xlink="http://www.w3.org/1999/xlink" width="52" height="52" viewBox="0 0 52 52">
  <defs>
    <filter id="Elipse_21" x="0" y="0" width="52" height="52" filterUnits="userSpaceOnUse">
      <feOffset dy="3" input="SourceAlpha"/>
      <feGaussianBlur stdDeviation="3" result="blur"/>
      <feFlood flood-opacity="0.769"/>
      <feComposite operator="in" in2="blur"/>
      <feComposite in="SourceGraphic"/>
    </filter>
  </defs>
  <g id="Grupo_20" data-name="Grupo 20" transform="translate(-539.318 -255.442)">
    <g transform="matrix(1, 0, 0, 1, 539.32, 255.44)" filter="url(#Elipse_21)">
      <circle id="Elipse_21-2" data-name="Elipse 21" cx="16" cy="16" r="16" transform="translate(10 7)" fill="none" stroke="#fff" stroke-miterlimit="10" stroke-width="2"/>
    </g>
    <path id="Trazado_103" data-name="Trazado 103" d="M569.068,305.614v-2.923a3.48,3.48,0,0,1,1.343-2.741s-3.851-.161-5.766-2.479c0,0-1.58-1.553-1.659-5.13,0,0-.2-2.992,1.659-4.746a6.639,6.639,0,0,1,.119-4.253s1.4-.5,4.364,1.653a13.482,13.482,0,0,1,7.971,0s2.692-2.017,4.312-1.7c0,0,.948,1.381.2,4.243a6.648,6.648,0,0,1,1.6,5.113s.342,6.987-7.372,7.256a3.3,3.3,0,0,1,1.29,2.768v2.943Z" transform="translate(-7.666 -11.681)" fill="#fff"/>
  </g>
</svg>
