<svg xmlns="http://www.w3.org/2000/svg" xmlns:xlink="http://www.w3.org/1999/xlink" width="298.509" height="144.861" viewBox="0 0 298.509 144.861">
  <defs>
    <filter id="Trazado_83" x="0" y="118.809" width="201.838" height="25.052" filterUnits="userSpaceOnUse">
      <feOffset dy="3" input="SourceAlpha"/>
      <feGaussianBlur stdDeviation="3" result="blur"/>
      <feFlood flood-color="#000009" flood-opacity="0.82"/>
      <feComposite operator="in" in2="blur"/>
      <feComposite in="SourceGraphic"/>
    </filter>
    <filter id="Trazado_99" x="195.835" y="0" width="102.674" height="144.861" filterUnits="userSpaceOnUse">
      <feOffset dy="3" input="SourceAlpha"/>
      <feGaussianBlur stdDeviation="3" result="blur-2"/>
      <feFlood flood-opacity="0.651"/>
      <feComposite operator="in" in2="blur-2"/>
      <feComposite in="SourceGraphic"/>
    </filter>
  </defs>
  <path id="Rectángulo_27" data-name="Rectángulo 27" d="M4.43,0H178.6a4.43,4.43,0,0,1,4.43,4.43V122a0,0,0,0,1,0,0H0a0,0,0,0,1,0,0V4.43A4.43,4.43,0,0,1,4.43,0Z" transform="translate(9.412 2.812)" fill="none" stroke="#45617b" stroke-miterlimit="10" stroke-width="2"/>
  <line id="Línea_5" data-name="Línea 5" x2="183.029" transform="translate(9.412 21.97)" fill="none" stroke="#46637d" stroke-miterlimit="10" stroke-width="1"/>
  <ellipse id="Elipse_12" data-name="Elipse 12" cx="3.651" cy="3.651" rx="3.651" ry="3.651" transform="translate(17.416 10.475)" fill="#46637d"/>
  <ellipse id="Elipse_13" data-name="Elipse 13" cx="3.651" cy="3.651" rx="3.651" ry="3.651" transform="translate(29.024 10.475)" fill="#46637d"/>
  <ellipse id="Elipse_14" data-name="Elipse 14" cx="3.651" cy="3.651" rx="3.651" ry="3.651" transform="translate(41.288 10.475)" fill="#46637d"/>
  <g transform="matrix(1, 0, 0, 1, 0, 0)" filter="url(#Trazado_83)">
    <path id="Trazado_83-2" data-name="Trazado 83" d="M103.69,287.764v6.253l183.838.8v-7.052Z" transform="translate(-94.69 -162.96)" fill="#46637d"/>
  </g>
  <rect id="Rectángulo_28" data-name="Rectángulo 28" width="39.575" height="9.098" transform="translate(81.23 130.119)" fill="#46637d"/>
  <rect id="Rectángulo_29" data-name="Rectángulo 29" width="61.305" height="73.259" rx="3.6" transform="translate(26.055 33.427)" fill="none" stroke="#46637d" stroke-miterlimit="10" stroke-width="1"/>
  <line id="Línea_6" data-name="Línea 6" x2="74.792" transform="translate(94.716 41.192)" fill="none" stroke="#46637d" stroke-miterlimit="10" stroke-width="1"/>
  <line id="Línea_7" data-name="Línea 7" x2="74.792" transform="translate(94.716 49.165)" fill="none" stroke="#46637d" stroke-miterlimit="10" stroke-width="1"/>
  <line id="Línea_8" data-name="Línea 8" x2="74.792" transform="translate(94.716 56.673)" fill="none" stroke="#46637d" stroke-miterlimit="10" stroke-width="1"/>
  <line id="Línea_9" data-name="Línea 9" x2="74.792" transform="translate(94.716 63.81)" fill="none" stroke="#46637d" stroke-miterlimit="10" stroke-width="1"/>
  <line id="Línea_10" data-name="Línea 10" x2="74.792" transform="translate(94.716 71.743)" fill="none" stroke="#46637d" stroke-miterlimit="10" stroke-width="1"/>
  <line id="Línea_11" data-name="Línea 11" x2="49.963" transform="translate(94.716 78.898)" fill="none" stroke="#46637d" stroke-miterlimit="10" stroke-width="1"/>
  <rect id="Rectángulo_30" data-name="Rectángulo 30" width="22.376" height="7.898" rx="2.46" transform="translate(94.716 85.843)" fill="#fff" stroke="#46637d" stroke-miterlimit="10" stroke-width="1"/>
  <g transform="matrix(1, 0, 0, 1, 0, 0)" filter="url(#Trazado_99)">
    <path id="Trazado_99-2" data-name="Trazado 99" d="M3.613,0H79.061a3.613,3.613,0,0,1,3.613,3.613V121.248a3.613,3.613,0,0,1-3.613,3.613H3.613A3.613,3.613,0,0,1,0,121.248V3.613A3.613,3.613,0,0,1,3.613,0Z" transform="translate(205.84 7)" fill="none" stroke="#46637d" stroke-width="2"/>
  </g>
  <path id="Rectángulo_32" data-name="Rectángulo 32" d="M0,0H82.674a0,0,0,0,1,0,0V6.866a5.619,5.619,0,0,1-5.619,5.619H6.534A6.534,6.534,0,0,1,0,5.951V0A0,0,0,0,1,0,0Z" transform="translate(205.835 119.376)" fill="#46637d" stroke="#46637d" stroke-miterlimit="10" stroke-width="2"/>
  <ellipse id="Elipse_15" data-name="Elipse 15" cx="3.327" cy="3.327" rx="3.327" ry="3.327" transform="translate(243.845 122.475)" fill="none" stroke="#fff" stroke-miterlimit="10" stroke-width="1"/>
  <line id="Línea_12" data-name="Línea 12" x2="13.407" transform="translate(240.469 14.11)" fill="none" stroke="#46637d" stroke-miterlimit="10" stroke-width="1"/>
  <ellipse id="Elipse_16" data-name="Elipse 16" cx="3.327" cy="3.327" rx="3.327" ry="3.327" transform="translate(212.377 10.504)" fill="none" stroke="#46637d" stroke-miterlimit="10" stroke-width="1"/>
  <rect id="Rectángulo_34" data-name="Rectángulo 34" width="66.436" height="66.436" rx="5.94" transform="translate(213.954 33.427)" fill="none" stroke="#46637d" stroke-miterlimit="10" stroke-width="1"/>
  <line id="Línea_13" data-name="Línea 13" x2="51.936" transform="translate(221.244 58.651)" fill="none" stroke="#46637d" stroke-miterlimit="10" stroke-width="1"/>
  <line id="Línea_14" data-name="Línea 14" x2="51.936" transform="translate(221.244 64.187)" fill="none" stroke="#46637d" stroke-miterlimit="10" stroke-width="1"/>
  <line id="Línea_15" data-name="Línea 15" x2="51.936" transform="translate(221.244 69.401)" fill="none" stroke="#46637d" stroke-miterlimit="10" stroke-width="1"/>
  <line id="Línea_16" data-name="Línea 16" x2="51.936" transform="translate(221.244 74.357)" fill="none" stroke="#46637d" stroke-miterlimit="10" stroke-width="1"/>
  <line id="Línea_17" data-name="Línea 17" x2="51.936" transform="translate(221.244 79.865)" fill="none" stroke="#46637d" stroke-miterlimit="10" stroke-width="1"/>
  <line id="Línea_18" data-name="Línea 18" x2="34.695" transform="translate(221.244 84.834)" fill="none" stroke="#46637d" stroke-miterlimit="10" stroke-width="1"/>
  <rect id="Rectángulo_35" data-name="Rectángulo 35" width="51.936" height="6.641" transform="translate(221.204 44.189)" fill="#46637d"/>
  <line id="Línea_19" data-name="Línea 19" x2="61.305" transform="translate(26.055 43.236)" fill="none" stroke="#46637d" stroke-miterlimit="10" stroke-width="1"/>
  <ellipse id="Elipse_17" data-name="Elipse 17" cx="2.629" cy="2.629" rx="2.629" ry="2.629" transform="translate(29.203 35.934)" fill="#46637d"/>
  <ellipse id="Elipse_18" data-name="Elipse 18" cx="2.629" cy="2.629" rx="2.629" ry="2.629" transform="translate(37.563 35.934)" fill="#46637d"/>
  <path id="Trazado_84" data-name="Trazado 84" d="M133.234,203.506h17.332l-1.473,16.7-6.872,1.963h-.5l-7-1.963Z" transform="translate(-99.079 -150.439)" fill="none" stroke="#46637d" stroke-miterlimit="10" stroke-width="1"/>
  <path id="Trazado_85" data-name="Trazado 85" d="M136.952,207.485l.643,6.271h7.481l-.085,2.573-2.234.745h-.481l-2.328-.745-.13-1.58h-2.059l.164,3.312,4.254,1.089h.581l4.24-1.1.533-6.344h-7.989l-.152-2.161h8.362l.2-2.057Z" transform="translate(-99.631 -151.03)" fill="#46637d"/>
  <path id="Trazado_86" data-name="Trazado 86" d="M163.42,203.6h17.7l-1.633,17.162-7.238,1.894-7.26-1.9Z" transform="translate(-103.562 -150.453)" fill="none" stroke="#46637d" stroke-miterlimit="10" stroke-width="1"/>
  <path id="Trazado_87" data-name="Trazado 87" d="M167.215,207.8l.2,2.016h5.6v.114l-5.4,2.054.226,2.075h7.812l-.316,2.829-2.354.652h-.216l-2.493-.652-.057-1.658H167.9l.334,3.267,4.537,1.211h.216l4.57-1.231.5-6.435H173.07v-.127l5.283-2.084.1-2.033Z" transform="translate(-104.126 -151.076)" fill="#46637d"/>
  <path id="Trazado_88" data-name="Trazado 88" d="M168.571,199.622v1.137h1.644v1.125h-2.867v-3.5h2.867v1.242Z" transform="translate(-104.146 -149.679)" fill="#46637d" stroke="#46637d" stroke-miterlimit="10" stroke-width="0.25"/>
  <path id="Trazado_89" data-name="Trazado 89" d="M172.173,198.387V199.6l1.139,1.163h-1.139v1.131h2.781v-1.126l-1.029-1.143h1.029v-1.236Z" transform="translate(-104.863 -149.679)" fill="#46637d" stroke="#46637d" stroke-miterlimit="10" stroke-width="0.25"/>
  <path id="Trazado_90" data-name="Trazado 90" d="M177.011,198.388V199.6l1.139,1.163h-1.139v1.131h2.781v-1.126l-1.029-1.143h1.029v-1.236Z" transform="translate(-105.581 -149.679)" fill="#46637d" stroke="#46637d" stroke-miterlimit="10" stroke-width="0.25"/>
  <g id="Grupo_18" data-name="Grupo 18" transform="translate(36.436 48.708)">
    <path id="Trazado_91" data-name="Trazado 91" d="M138.849,198.387v3.46h-1.062V200.5h-.811v1.346h-1.063v-3.46h1.063v1.272h.811v-1.272Z" transform="translate(-135.913 -198.387)" fill="#46637d" stroke="#46637d" stroke-miterlimit="10" stroke-width="0.25"/>
    <path id="Trazado_92" data-name="Trazado 92" d="M141.436,199.215v2.632H140.43v-2.632h-.717v-.828h2.441v.828Z" transform="translate(-136.477 -198.387)" fill="#46637d" stroke="#46637d" stroke-miterlimit="10" stroke-width="0.25"/>
    <path id="Trazado_93" data-name="Trazado 93" d="M146.7,198.387v3.46h-.986v-2.474l-.64,2.474H144.4l-.666-2.474v2.474h-.8v-3.46h1.389l.5,1.837.479-1.837Z" transform="translate(-136.956 -198.387)" fill="#46637d" stroke="#46637d" stroke-miterlimit="10" stroke-width="0.25"/>
    <path id="Trazado_94" data-name="Trazado 94" d="M150.489,201v.849h-2.427v-3.46h1.063V201Z" transform="translate(-137.718 -198.387)" fill="#46637d" stroke="#46637d" stroke-miterlimit="10" stroke-width="0.25"/>
  </g>
  <path id="Trazado_95" data-name="Trazado 95" d="M148.062,233.7h17.1l-1.472,16.579-6.7,1.837h-.7l-6.741-1.837Z" transform="translate(-101.281 -154.925)" fill="none" stroke="#46637d" stroke-miterlimit="10" stroke-width="1"/>
  <path id="Trazado_96" data-name="Trazado 96" d="M152.536,237.759h9.629l.421,4.011h-2.416l-.275-2.005h-5.126l-.311,2.909h8.128l-.7,5.677-4.5.918h-.9l-4.265-.876-.494-2.923h2.435l.142,1.356,2.426.568h.426l2.54-.6.261-2.267H151.73Z" transform="translate(-101.826 -155.527)" fill="#46637d"/>
  <path id="Trazado_97" data-name="Trazado 97" d="M153.953,230.882v1.182h3.037V228.72h-1.281v2.188Z" transform="translate(-102.156 -154.184)" fill="#46637d" stroke="#46637d" stroke-miterlimit="10" stroke-width="0.25"/>
  <path id="Trazado_98" data-name="Trazado 98" d="M158.228,228.668v.775l1.685,1.507v.3h-1.571v.723h3.288v-.723l-1.556-1.749h1.585v-.827Z" transform="translate(-102.791 -154.177)" fill="#46637d" stroke="#46637d" stroke-miterlimit="10" stroke-width="0.25"/>
  <text id="Aceptar" transform="translate(98.597 86.83)" fill="#46637d" font-size="4" font-family="SegoeUI, Segoe UI"><tspan x="0" y="4">Aceptar</tspan></text>
  <path id="Trazado_104" data-name="Trazado 104" d="M300.525,164.644h82.884" transform="translate(-94.69 -141.672)" fill="none" stroke="#46637d" stroke-width="1"/>
</svg>
